<?xml version="1.0" encoding="UTF-8" standalone="no"?><!DOCTYPE svg PUBLIC "-//W3C//DTD SVG 1.1//EN" "http://www.w3.org/Graphics/SVG/1.1/DTD/svg11.dtd"><svg width="100%" height="100%" viewBox="0 0 295 102" version="1.1" xmlns="http://www.w3.org/2000/svg" xmlns:xlink="http://www.w3.org/1999/xlink" xml:space="preserve" xmlns:serif="http://www.serif.com/" style="fill-rule:evenodd;clip-rule:evenodd;stroke-linejoin:round;stroke-miterlimit:2;"><path d="M0,89.847c70.982,41.406 106.625,-89.847 106.625,-89.847c-47.747,114.471 -106.625,89.847 -106.625,89.847Z" style="fill:url(#_Linear1);fill-rule:nonzero;"/><path d="M146.644,21.894l-5.501,23.433l-6.194,0l-3.855,-13.882l-3.919,13.882l-6.15,0l-5.544,-23.433l6.994,0l2.318,14.121l3.724,-14.121l5.09,0l3.703,13.861l2.339,-13.861l6.995,0Z" style="fill:#f90473;fill-rule:nonzero;"/><path d="M156.627,28.954l0,9.248c0.636,1.285 1.798,1.927 3.487,1.927c1.314,0 2.242,-0.581 2.783,-1.743c0.542,-1.162 0.813,-2.848 0.813,-5.056c-0,-4.159 -1.214,-6.238 -3.639,-6.238c-1.704,0 -2.851,0.622 -3.444,1.862m0,14.445l0,10.937l-7.298,0l0,-32.442l6.8,-0l0.239,2.166c1.414,-1.732 3.255,-2.599 5.522,-2.599c1.949,0 3.606,0.488 4.97,1.463c1.365,0.974 2.397,2.353 3.097,4.136c0.701,1.783 1.05,3.872 1.05,6.27l0,0.454c0,2.296 -0.354,4.35 -1.06,6.162c-0.708,1.812 -1.744,3.234 -3.108,4.267c-1.365,1.031 -3.007,1.547 -4.927,1.547c-2.137,-0 -3.899,-0.787 -5.285,-2.361" style="fill:#f90473;fill-rule:nonzero;"/><path d="M181.597,29.02l0,16.307l-7.298,-0l-0,-23.433l6.844,-0l0.26,2.752c1.631,-2.124 3.854,-3.184 6.67,-3.184c2.916,-0 4.916,1.176 5.999,3.529c1.573,-2.353 3.862,-3.529 6.865,-3.529c4.865,-0 7.305,3.003 7.32,9.009l-0,14.856l-7.32,-0l-0,-14.747c-0,-0.939 -0.108,-1.662 -0.325,-2.166c-0.217,-0.506 -0.524,-0.852 -0.92,-1.04c-0.398,-0.187 -0.914,-0.282 -1.549,-0.282c-1.444,0 -2.527,0.643 -3.248,1.928l0.021,16.307l-7.298,-0l0,-14.705c0,-0.953 -0.109,-1.686 -0.325,-2.198c-0.216,-0.513 -0.527,-0.862 -0.931,-1.05c-0.405,-0.187 -0.932,-0.282 -1.581,-0.282c-1.358,0 -2.418,0.643 -3.184,1.928" style="fill-rule:nonzero;"/><path d="M220.298,28.208c-0.592,0.744 -0.974,1.786 -1.148,3.129l7.363,0l0,-0.563c0.03,-2.455 -1.162,-3.682 -3.573,-3.682c-1.17,0 -2.05,0.372 -2.642,1.116m12.713,13.437c-0.507,0.723 -1.203,1.398 -2.091,2.025c-0.888,0.629 -1.941,1.134 -3.162,1.517c-1.22,0.382 -2.544,0.573 -3.973,0.573c-2.469,-0 -4.613,-0.505 -6.432,-1.515c-1.82,-1.011 -3.212,-2.379 -4.18,-4.104c-0.967,-1.726 -1.459,-3.62 -1.473,-5.685l0,-0.888c0,-2.324 0.426,-4.4 1.278,-6.226c0.851,-1.826 2.129,-3.263 3.833,-4.31c1.704,-1.046 3.768,-1.571 6.194,-1.571c2.194,0 4.089,0.466 5.685,1.398c1.595,0.931 2.819,2.26 3.67,3.985c0.852,1.725 1.278,3.757 1.278,6.096l0,2.967l-14.488,0c0.26,1.314 0.834,2.347 1.722,3.096c0.888,0.751 2.017,1.127 3.389,1.127c2.324,-0 4.136,-0.809 5.436,-2.426l3.314,3.941Z" style="fill-rule:nonzero;"/><path d="M243.828,38.463c0.555,1.111 1.49,1.666 2.805,1.666c1.631,0 2.778,-0.67 3.442,-2.014l0,-8.988c-0.649,-1.356 -1.783,-2.034 -3.4,-2.034c-1.299,-0 -2.238,0.577 -2.815,1.732c-0.578,1.156 -0.866,2.845 -0.866,5.068c-0,1.934 0.278,3.458 0.834,4.57m7.005,6.864l-0.346,-2.511c-1.531,1.963 -3.436,2.944 -5.717,2.944c-1.92,0 -3.563,-0.502 -4.927,-1.505c-1.364,-1.004 -2.393,-2.393 -3.086,-4.169c-0.693,-1.775 -1.047,-3.812 -1.061,-6.107l0,-0.541c0,-2.397 0.346,-4.494 1.039,-6.291c0.693,-1.798 1.725,-3.195 3.097,-4.191c1.371,-0.996 3.032,-1.494 4.98,-1.494c2.094,-0 3.849,0.816 5.263,2.448l0,-9.737l7.342,0l-0,31.154l-6.584,0Z" style="fill-rule:nonzero;"/><path d="M269.264,45.327l-7.321,-0l0,-23.433l7.321,-0l-0,23.433Zm-7.023,-31.316c0.314,-0.534 0.755,-0.951 1.322,-1.255c0.568,-0.304 1.219,-0.455 1.953,-0.455c0.736,-0 1.387,0.151 1.953,0.455c0.568,0.304 1.009,0.721 1.323,1.255c0.314,0.535 0.472,1.149 0.472,1.841c-0,0.694 -0.158,1.307 -0.471,1.841c-0.315,0.535 -0.756,0.953 -1.323,1.256c-0.567,0.304 -1.218,0.456 -1.953,0.456c-0.735,-0 -1.386,-0.152 -1.954,-0.456c-0.567,-0.303 -1.008,-0.721 -1.322,-1.256c-0.314,-0.534 -0.471,-1.147 -0.471,-1.841c0,-0.692 0.157,-1.306 0.471,-1.841" style="fill-rule:nonzero;"/><path d="M284.553,40.021c0.62,-0.36 1.075,-0.801 1.364,-1.32l-0,-3.791l-2.296,0c-1.27,0 -2.194,0.325 -2.772,0.976c-0.577,0.649 -0.866,1.465 -0.866,2.446c-0,0.65 0.223,1.184 0.671,1.603c0.448,0.419 1.018,0.628 1.712,0.628c0.837,-0 1.566,-0.181 2.187,-0.542m2.382,5.306c-0.275,-0.548 -0.498,-1.248 -0.672,-2.1c-1.342,1.689 -3.219,2.533 -5.63,2.533c-1.444,-0 -2.772,-0.299 -3.985,-0.898c-1.213,-0.599 -2.177,-1.433 -2.892,-2.502c-0.714,-1.067 -1.071,-2.282 -1.071,-3.638c0,-2.44 0.888,-4.328 2.664,-5.663c1.776,-1.335 4.468,-2.017 8.077,-2.047l2.491,0l-0,-1.233c-0,-2.152 -0.931,-3.228 -2.793,-3.228c-1.733,-0 -2.6,0.852 -2.6,2.556l-7.298,-0c0,-1.444 0.426,-2.748 1.278,-3.909c0.852,-1.163 2.054,-2.076 3.606,-2.741c1.551,-0.663 3.353,-0.995 5.403,-0.995c1.892,-0 3.569,0.314 5.035,0.941c1.465,0.629 2.617,1.571 3.454,2.827c0.837,1.256 1.257,2.786 1.257,4.591l-0,10.2c0.014,2.094 0.346,3.74 0.996,4.938l-0,0.368l-7.32,-0Z" style="fill-rule:nonzero;"/><path d="M123.505,76.801l-0,16.827l-7.299,-0l0,-33.265l7.299,-0l-0,12.322c1.587,-1.949 3.58,-2.923 5.977,-2.923c2.454,-0 4.375,0.733 5.76,2.198c1.387,1.466 2.087,3.801 2.101,7.007l-0,14.661l-7.341,-0l-0,-14.598c-0,-1.356 -0.275,-2.301 -0.824,-2.836c-0.549,-0.534 -1.385,-0.802 -2.511,-0.802c-1.473,0 -2.527,0.47 -3.162,1.409" style="fill-rule:nonzero;"/><path d="M153.463,95.423c-0.318,0.982 -0.751,1.903 -1.299,2.761c-0.549,0.859 -1.286,1.593 -2.209,2.199c-1.054,0.678 -2.462,1.018 -4.223,1.018l-1.331,-0.063c-0.037,-0.001 -0.073,-0.007 -0.109,-0.014l-1.095,-0.246c-0.291,-0.065 -0.497,-0.323 -0.497,-0.62l0,-4.71l0.953,-0c1.112,-0 1.903,-0.197 2.436,-0.487c0.588,-0.32 0.968,-0.806 1.164,-1.112c0.106,-0.165 0.131,-0.368 0.067,-0.555l-7.801,-22.557c-0.143,-0.412 0.164,-0.843 0.6,-0.843l6.445,0c0.285,0 0.535,0.189 0.612,0.464l2.995,10.639c0.173,0.614 1.042,0.618 1.222,0.006l3.12,-10.652c0.079,-0.271 0.327,-0.457 0.61,-0.457l6.461,0c0.44,0 0.747,0.436 0.599,0.85l-8.72,24.379Z" style="fill-rule:nonzero;"/><path d="M171.604,86.697c0.707,1.155 1.725,1.732 3.053,1.732c1.589,0 2.744,-0.534 3.465,-1.603l0,-9.831c-0.692,-1.068 -1.833,-1.602 -3.421,-1.602c-1.357,-0 -2.39,0.591 -3.097,1.775c-0.707,1.185 -1.061,2.859 -1.061,5.025c-0,1.848 0.354,3.349 1.061,4.504m-2.856,14.007c-1.654,-0.483 -2.723,-1.137 -4.148,-2.277l3.054,-4.287c1.415,1.602 3.388,1.891 5.568,1.891c3.191,0 4.9,-1.657 4.9,-3.226l0,-1.084c-1.357,1.56 -3.133,2.341 -5.327,2.339c-1.937,-0.001 -3.598,-0.409 -5.067,-1.526c-1.407,-1.07 -2.552,-2.426 -3.325,-4.224c-0.772,-1.797 -1.159,-3.836 -1.159,-6.117l0,-0.455c0,-2.368 0.387,-4.458 1.159,-6.27c0.773,-1.811 1.884,-3.216 3.335,-4.212c1.451,-0.996 3.151,-1.494 5.1,-1.494c2.44,-0 4.346,0.816 5.718,2.448l0.26,-2.016l6.626,0l0,22.524c0,2.122 -1.107,3.914 -1.494,4.521c-0.975,1.533 -2.469,2.319 -4.259,3.114c-1.79,0.793 -3.948,1.048 -6.33,1.048c-1.661,0 -2.54,-0.091 -4.611,-0.697" style="fill-rule:nonzero;"/><path d="M197.332,93.627l-7.32,-0l-0,-23.433l7.32,-0l-0,23.433Zm-7.245,-31.316c0.339,-0.534 0.817,-0.951 1.43,-1.255c0.614,-0.304 1.318,-0.455 2.111,-0.455c0.794,-0 1.498,0.151 2.112,0.455c0.614,0.304 1.09,0.721 1.429,1.255c0.339,0.535 0.509,1.149 0.509,1.841c0,0.694 -0.17,1.307 -0.509,1.841c-0.339,0.535 -0.815,0.953 -1.429,1.256c-0.614,0.304 -1.318,0.456 -2.112,0.456c-0.793,-0 -1.497,-0.152 -2.111,-0.456c-0.613,-0.303 -1.091,-0.721 -1.43,-1.256c-0.338,-0.534 -0.508,-1.147 -0.508,-1.841c-0,-0.692 0.17,-1.306 0.508,-1.841" style="fill-rule:nonzero;"/><path d="M209.676,76.508c-0.593,0.743 -0.974,1.786 -1.148,3.129l7.363,0l0,-0.563c0.029,-2.455 -1.162,-3.682 -3.573,-3.682c-1.17,0 -2.05,0.372 -2.642,1.116m12.712,13.437c-0.506,0.723 -1.202,1.397 -2.09,2.025c-0.888,0.629 -1.942,1.134 -3.162,1.517c-1.22,0.381 -2.545,0.573 -3.973,0.573c-2.469,-0 -4.614,-0.505 -6.432,-1.515c-1.82,-1.011 -3.213,-2.379 -4.18,-4.104c-0.968,-1.726 -1.459,-3.621 -1.473,-5.685l-0,-0.888c-0,-2.325 0.426,-4.4 1.278,-6.226c0.851,-1.826 2.129,-3.263 3.833,-4.31c1.703,-1.047 3.768,-1.571 6.194,-1.571c2.194,0 4.089,0.466 5.685,1.397c1.595,0.932 2.819,2.261 3.67,3.986c0.852,1.725 1.278,3.757 1.278,6.096l0,2.967l-14.488,-0c0.26,1.314 0.834,2.347 1.722,3.096c0.888,0.751 2.017,1.126 3.389,1.126c2.324,0 4.136,-0.808 5.436,-2.425l3.313,3.941Z" style="fill-rule:nonzero;"/><path d="M233.152,77.06l0,16.567l-7.298,-0l-0,-23.432l6.843,-0l0.238,2.728c1.632,-2.107 3.855,-3.161 6.67,-3.161c2.311,-0 4.112,0.703 5.404,2.111c1.292,1.408 1.945,3.707 1.96,6.898l-0,14.856l-7.341,-0l-0,-14.77c-0,-0.924 -0.128,-1.635 -0.38,-2.133c-0.253,-0.498 -0.617,-0.844 -1.093,-1.039c-0.477,-0.195 -1.091,-0.293 -1.842,-0.293c-1.428,0 -2.483,0.557 -3.161,1.668" style="fill-rule:nonzero;"/><path d="M258.879,76.508c-0.592,0.743 -0.974,1.786 -1.148,3.129l7.364,0l-0,-0.563c0.029,-2.455 -1.163,-3.682 -3.573,-3.682c-1.17,0 -2.051,0.372 -2.643,1.116m12.713,13.437c-0.506,0.723 -1.202,1.397 -2.09,2.025c-0.888,0.629 -1.942,1.134 -3.162,1.517c-1.221,0.381 -2.544,0.573 -3.974,0.573c-2.469,-0 -4.612,-0.505 -6.432,-1.515c-1.819,-1.011 -3.212,-2.379 -4.18,-4.104c-0.967,-1.726 -1.458,-3.621 -1.473,-5.685l0,-0.888c0,-2.325 0.426,-4.4 1.278,-6.226c0.852,-1.826 2.13,-3.263 3.834,-4.31c1.703,-1.047 3.768,-1.571 6.193,-1.571c2.195,0 4.09,0.466 5.685,1.397c1.595,0.932 2.819,2.261 3.671,3.986c0.852,1.725 1.278,3.757 1.278,6.096l-0,2.967l-14.489,-0c0.26,1.314 0.834,2.347 1.722,3.096c0.888,0.751 2.018,1.126 3.389,1.126c2.325,0 4.137,-0.808 5.436,-2.425l3.314,3.941Z" style="fill-rule:nonzero;"/><path d="M47.165,97.925l33.037,-0c9.145,-0 16.559,-7.413 16.559,-16.558l-0,-42.578c-14.568,29.995 -28.516,48.9 -49.596,59.136" style="fill-rule:nonzero;"/><path d="M91.541,21.979c-2.766,-4.083 -5.838,-4.05 -11.338,-4.05l-51.152,0c-9.145,0 -16.558,7.413 -16.558,16.558l-0,53.122c20.005,1.309 51.976,-13.371 79.048,-65.63" style="fill-rule:nonzero;"/><defs><linearGradient id="_Linear1" x1="0" y1="0" x2="1" y2="0" gradientUnits="userSpaceOnUse" gradientTransform="matrix(117.872,-18.6088,18.6088,117.872,-4.63127,60.5092)"><stop offset="0" style="stop-color:#004a54;stop-opacity:1"/><stop offset="0.33" style="stop-color:#004a54;stop-opacity:1"/><stop offset="1" style="stop-color:#00fffe;stop-opacity:1"/></linearGradient></defs></svg>